<?xml version="1.0" standalone="no"?>
<!DOCTYPE svg PUBLIC "-//W3C//DTD SVG 20010904//EN"
 "http://www.w3.org/TR/2001/REC-SVG-20010904/DTD/svg10.dtd">
<svg version="1.0" xmlns="http://www.w3.org/2000/svg"
 width="512.000000pt" height="512.000000pt" viewBox="0 0 512.000000 512.000000"
 preserveAspectRatio="xMidYMid meet">

<g transform="translate(0.000000,512.000000) scale(0.100000,-0.100000)"
fill="#000000" stroke="none">
<path d="M1379 4476 c-2 -2 -3 -79 -1 -170 l3 -166 54 0 54 0 3 113 3 112 50
0 50 0 3 -398 2 -398 -52 3 -53 3 -3 223 -2 222 -55 0 -55 0 0 -164 0 -164
-76 -88 c-147 -172 -254 -378 -318 -614 -54 -202 -66 -500 -27 -712 63 -350
238 -680 472 -891 l59 -54 0 -346 0 -347 730 0 730 0 0 55 0 55 -670 0 -670 0
0 240 c0 132 2 240 4 240 3 0 40 -22 83 -49 168 -104 335 -170 533 -212 149
-30 415 -38 565 -15 256 40 462 117 658 248 31 21 57 35 57 31 1 -7 0 -456 0
-475 0 -5 -49 -8 -109 -8 l-109 0 -4 -51 c-1 -28 -1 -53 1 -55 2 -2 80 -4 173
-4 l168 0 0 348 0 348 61 59 c216 213 364 465 442 755 37 136 49 245 49 425 0
212 -25 358 -92 546 -178 498 -619 890 -1156 1024 -144 36 -275 48 -459 42
-175 -6 -278 -25 -435 -77 -89 -30 -263 -110 -285 -131 -5 -5 -17 -9 -27 -9
-17 0 -18 16 -18 255 l0 255 -163 0 c-90 0 -166 -2 -168 -4z m1357 -411 c269
-36 523 -141 749 -311 92 -68 257 -239 324 -334 108 -155 187 -331 233 -521
20 -83 22 -120 22 -324 0 -214 -1 -238 -26 -340 -72 -300 -197 -525 -413 -741
-218 -218 -454 -347 -765 -416 -80 -18 -129 -22 -305 -22 -185 -1 -223 2 -315
22 -292 65 -525 194 -740 411 -470 474 -591 1173 -303 1746 41 83 105 185 115
185 4 0 9 -46 10 -102 l3 -102 83 -64 82 -63 0 -115 0 -114 55 0 55 0 0 114 0
114 85 63 85 63 0 178 0 178 -24 0 c-25 0 -25 0 -28 123 -4 142 -7 136 113
203 284 157 582 213 905 169z m-1076 -699 l0 -94 -56 -42 -55 -42 -38 26 c-79
55 -81 59 -81 150 0 45 3 86 7 89 3 4 55 7 115 7 l108 0 0 -94z"/>
<path d="M2443 3949 c-168 -14 -393 -73 -393 -103 0 -25 30 -86 43 -86 6 0 47
11 90 25 240 77 538 72 782 -12 151 -52 140 -52 164 -2 12 23 21 44 21 46 0 7
-114 55 -175 73 -103 32 -190 49 -277 55 -46 3 -99 7 -118 9 -19 2 -81 -1
-137 -5z"/>
<path d="M2405 3689 c-77 -11 -217 -48 -229 -59 -10 -10 11 -87 26 -96 4 -3
56 7 114 22 186 46 411 34 594 -32 37 -13 70 -24 74 -24 5 0 46 84 46 95 0 4
-98 41 -155 59 -135 41 -330 55 -470 35z"/>
<path d="M2455 3454 c-11 -3 -47 -10 -80 -16 -65 -12 -162 -46 -228 -79 -53
-27 -167 -107 -167 -118 0 -4 15 -25 33 -46 l33 -38 49 37 c201 154 483 192
735 98 414 -153 617 -610 453 -1020 -76 -189 -255 -366 -441 -436 -297 -111
-609 -48 -823 165 -278 277 -320 722 -97 1018 l40 53 -35 36 c-23 22 -41 33
-51 29 -24 -9 -119 -162 -150 -238 -108 -274 -72 -584 99 -837 229 -342 634
-474 1039 -338 211 71 383 222 480 421 76 154 91 223 91 420 0 148 -3 180 -23
250 -85 291 -287 505 -562 593 -124 41 -313 62 -395 46z"/>
<path d="M2280 2955 l0 -55 55 0 55 0 0 55 0 55 -55 0 -55 0 0 -55z"/>
<path d="M2500 2955 l0 -56 58 3 57 3 0 50 0 50 -57 3 -58 3 0 -56z"/>
<path d="M2730 2955 l0 -55 55 0 55 0 0 55 0 55 -55 0 -55 0 0 -55z"/>
<path d="M2464 2761 c-57 -26 -112 -93 -120 -148 -23 -154 65 -263 213 -263
152 0 249 122 213 269 -31 129 -181 199 -306 142z m159 -111 c38 -30 52 -80
34 -123 -26 -60 -85 -83 -151 -57 -29 11 -56 57 -56 95 0 34 27 80 54 94 35
17 91 13 119 -9z"/>
<path d="M2339 2213 c-6 -6 -9 -31 -7 -55 l3 -43 223 -3 222 -2 0 54 0 55
-216 3 c-156 2 -218 0 -225 -9z"/>
<path d="M2108 1586 c-14 -30 -19 -49 -12 -56 15 -15 141 -57 229 -75 110 -23
275 -30 376 -16 87 13 228 48 242 60 10 10 -24 101 -38 101 -6 0 -31 -7 -56
-15 -66 -22 -213 -45 -289 -45 -88 0 -238 26 -325 56 -38 14 -78 27 -87 30
-13 5 -23 -5 -40 -40z"/>
<path d="M1988 1354 c-26 -53 -28 -50 73 -89 244 -94 538 -115 804 -56 102 22
205 58 205 71 0 7 -26 71 -36 88 -1 2 -51 -11 -111 -28 -152 -44 -242 -54
-423 -47 -167 6 -288 31 -408 81 -34 14 -66 26 -72 26 -6 0 -20 -20 -32 -46z"/>
<path d="M3060 695 l0 -55 55 0 55 0 0 55 0 55 -55 0 -55 0 0 -55z"/>
</g>
</svg>
